<svg xmlns="http://www.w3.org/2000/svg" version="1.1" xmlns:xlink="http://www.w3.org/1999/xlink" xmlns:svgjs="http://svgjs.com/svgjs" width="16" height="16"><svg width="16" height="16" viewBox="0 0 16 16" fill="none" xmlns="http://www.w3.org/2000/svg">
<rect width="16" height="16" fill="black"></rect>
<path d="M2.49999 8C2.49984 7.03447 2.75387 6.08592 3.23653 5.2497C3.7192 4.41347 4.41349 3.71904 5.24962 3.23621C6.08575 2.75338 7.03425 2.49917 7.99978 2.49914C8.9653 2.4991 9.91383 2.75323 10.75 3.236C10.8648 3.30126 11.0007 3.31847 11.1281 3.28387C11.2555 3.24928 11.3641 3.16569 11.4301 3.05134C11.4962 2.937 11.5143 2.80119 11.4805 2.67354C11.4468 2.54589 11.3639 2.43677 11.25 2.37C10.0109 1.65458 8.57028 1.36802 7.15168 1.55476C5.73308 1.7415 4.41573 2.3911 3.40395 3.40282C2.39216 4.41454 1.74247 5.73184 1.55564 7.15043C1.36881 8.56902 1.65528 10.0096 2.37062 11.2488C3.08596 12.488 4.19019 13.4565 5.51207 14.0042C6.83395 14.5518 8.2996 14.648 9.68171 14.2778C11.0638 13.9076 12.2852 13.0918 13.1563 11.9567C14.0275 10.8216 14.4998 9.43083 14.5 8C14.5 7.86739 14.4473 7.74021 14.3535 7.64644C14.2598 7.55268 14.1326 7.5 14 7.5C13.8674 7.5 13.7402 7.55268 13.6464 7.64644C13.5527 7.74021 13.5 7.86739 13.5 8C13.5 9.45869 12.9205 10.8576 11.8891 11.8891C10.8576 12.9205 9.45868 13.5 7.99999 13.5C6.5413 13.5 5.14236 12.9205 4.11091 11.8891C3.07946 10.8576 2.49999 9.45869 2.49999 8Z" fill="#10DC25"></path>
<path d="M15.354 3.354C15.4005 3.30751 15.4374 3.25232 15.4625 3.19158C15.4877 3.13084 15.5006 3.06574 15.5006 3C15.5006 2.93425 15.4877 2.86915 15.4625 2.80841C15.4374 2.74768 15.4005 2.69249 15.354 2.646C15.3075 2.59951 15.2523 2.56263 15.1916 2.53748C15.1308 2.51232 15.0657 2.49937 15 2.49937C14.9343 2.49937 14.8692 2.51232 14.8084 2.53748C14.7477 2.56263 14.6925 2.59951 14.646 2.646L8.00001 9.293L5.35401 6.646C5.30752 6.59951 5.25233 6.56263 5.19159 6.53747C5.13085 6.51232 5.06575 6.49937 5.00001 6.49937C4.93426 6.49937 4.86916 6.51232 4.80842 6.53747C4.74768 6.56263 4.69249 6.59951 4.64601 6.646C4.59952 6.69249 4.56264 6.74768 4.53748 6.80841C4.51232 6.86915 4.49937 6.93425 4.49937 7C4.49937 7.06574 4.51232 7.13084 4.53748 7.19158C4.56264 7.25232 4.59952 7.30751 4.64601 7.354L7.64601 10.354C7.69245 10.4006 7.74763 10.4375 7.80837 10.4627C7.86912 10.4879 7.93424 10.5009 8.00001 10.5009C8.06577 10.5009 8.13089 10.4879 8.19164 10.4627C8.25238 10.4375 8.30756 10.4006 8.35401 10.354L15.354 3.354Z" fill="#10DC25"></path>
</svg><style>@media (prefers-color-scheme: light) { :root { filter: none; } }
</style></svg>