<svg width="308" height="216" viewBox="0 0 308 216" fill="none" xmlns="http://www.w3.org/2000/svg">
<path d="M99.7083 46.7291C97.1667 42.0208 93.5052 38.4323 88.7292 35.9583C83.9635 33.4739 78.3594 32.2291 71.9167 32.2291C60.7604 32.2291 51.8229 35.8906 45.1042 43.2083C38.3958 50.5312 35.0417 60.3021 35.0417 72.5208C35.0417 85.5364 38.5677 95.7031 45.625 103.021C52.6771 110.344 62.3802 114 74.7292 114C83.1875 114 90.3385 111.854 96.1875 107.562C102.031 103.271 106.297 97.0937 108.979 89.0208H65.2708V63.6458H140.208V95.6666C137.651 104.266 133.318 112.26 127.208 119.646C121.094 127.036 113.339 133.016 103.938 137.583C94.5313 142.141 83.9271 144.417 72.125 144.417C58.151 144.417 45.6927 141.365 34.75 135.25C23.8021 129.141 15.276 120.646 9.16667 109.771C3.05208 98.8958 0 86.4791 0 72.5208C0 58.5521 3.05208 46.0937 9.16667 35.1458C15.276 24.2031 23.7708 15.6771 34.6458 9.56248C45.5208 3.45311 57.9427 0.395813 71.9167 0.395813C88.8333 0.395813 103.094 4.49477 114.708 12.6875C126.333 20.8854 134.026 32.2291 137.792 46.7291H99.7083Z" fill="#00860D"/>
<path d="M226.222 144.833C212.915 144.833 200.722 141.745 189.639 135.563C178.566 129.385 169.774 120.76 163.264 109.688C156.748 98.6042 153.493 86.1458 153.493 72.3125C153.493 58.4792 156.748 46.0573 163.264 35.0417C169.774 24.0313 178.566 15.4375 189.639 9.27083C200.722 3.09375 212.915 0 226.222 0C239.514 0 251.691 3.09375 262.764 9.27083C273.847 15.4375 282.576 24.0313 288.951 35.0417C295.337 46.0573 298.535 58.4792 298.535 72.3125C298.535 86.1458 295.311 98.6042 288.868 109.688C282.42 120.76 273.691 129.385 262.68 135.563C251.665 141.745 239.514 144.833 226.222 144.833ZM226.222 113.396C237.498 113.396 246.524 109.641 253.305 102.125C260.081 94.599 263.472 84.6615 263.472 72.3125C263.472 59.8281 260.081 49.8542 253.305 42.3958C246.524 34.9375 237.498 31.2083 226.222 31.2083C214.805 31.2083 205.701 34.9063 198.91 42.2917C192.128 49.6823 188.743 59.6875 188.743 72.3125C188.743 84.8021 192.128 94.7708 198.91 102.229C205.701 109.677 214.805 113.396 226.222 113.396Z" fill="#00860D"/>
<mask id="mask0_1_65" style="mask-type:luminance" maskUnits="userSpaceOnUse" x="184" y="29" width="85" height="86">
<path d="M184.098 29.8183H268.478V114.219H184.098V29.8183Z" fill="white"/>
</mask>
<g mask="url(#mask0_1_65)">
<path fill-rule="evenodd" clip-rule="evenodd" d="M226.103 30.1881C202.952 30.1881 184.098 49.0371 184.098 72.1829C184.098 95.334 202.952 114.178 226.103 114.178C249.254 114.178 268.109 95.334 268.109 72.1829C268.109 62.1777 264.718 53.2298 258.968 45.8965L255.015 50.584C260.025 56.7558 261.989 63.61 261.989 72.1829C261.989 92.0215 245.942 108.053 226.103 108.053C206.26 108.053 190.218 92.0215 190.218 72.1829C190.218 52.3444 206.26 36.3027 226.103 36.3027C232.39 36.3027 237.093 37.209 242.228 40.0423L245.984 35.11C239.973 31.7923 233.442 30.1881 226.103 30.1881Z" fill="black"/>
</g>
<mask id="mask1_1_65" style="mask-type:luminance" maskUnits="userSpaceOnUse" x="200" y="25" width="71" height="72">
<path d="M200.478 25.2194H270.098V96.485H200.478V25.2194Z" fill="white"/>
</mask>
<g mask="url(#mask1_1_65)">
<path d="M210.556 66.6621C212.249 66.6621 213.53 68.0527 214.4 70.8288C216.14 76.0423 217.374 78.6465 218.114 78.6465C218.681 78.6465 219.265 78.209 219.874 77.3444C232.077 57.8027 243.369 41.9954 253.749 29.9277C256.442 26.8027 260.718 25.235 266.583 25.235C267.973 25.235 268.905 25.3652 269.385 25.6256C269.864 25.8913 270.098 26.2142 270.098 26.6048C270.098 27.2142 269.385 28.4069 267.952 30.1881C251.187 50.334 235.64 71.61 221.306 94.0163C220.306 95.5788 218.265 96.36 215.181 96.36C212.056 96.36 210.213 96.2298 209.645 95.9694C208.171 95.3184 206.431 91.9954 204.437 86.0059C202.176 79.36 201.046 75.1934 201.046 73.5006C201.046 71.6777 202.567 69.9173 205.609 68.2246C207.473 67.1829 209.124 66.6621 210.556 66.6621Z" fill="black"/>
</g>
<path d="M22.4377 177.846H32.2085V214.263H36.3544V177.846H46.1252V173.997H22.4377V177.846Z" fill="#00860D"/>
<path d="M87.2174 194.132C87.2174 198.752 85.556 202.659 82.3581 205.856C79.1029 209.112 75.1966 210.711 70.6341 210.711C66.0768 210.711 62.1706 209.112 58.9727 205.856C55.7122 202.659 54.1133 198.752 54.1133 194.132C54.1133 189.632 55.7122 185.721 58.9727 182.466C62.1706 179.268 66.0768 177.612 70.6341 177.612C75.1966 177.612 79.1029 179.268 82.3581 182.466C85.556 185.721 87.2174 189.632 87.2174 194.132ZM91.3633 194.132C91.3633 191.289 90.7695 188.627 89.7018 186.08C88.6393 183.591 87.1549 181.398 85.2643 179.507C83.3685 177.669 81.1758 176.19 78.6914 175.122C76.1445 174.06 73.4779 173.466 70.6341 173.466C67.7956 173.466 65.0716 174.06 62.582 175.122C60.0977 176.19 57.9049 177.669 56.0091 179.507C54.1133 181.398 52.6341 183.591 51.5716 186.08C50.5039 188.627 49.9727 191.289 49.9727 194.132C49.9727 196.976 50.5039 199.695 51.5716 202.185C52.6341 204.731 54.1133 206.924 56.0091 208.815C57.9049 210.711 60.0977 212.19 62.582 213.257C65.0716 214.325 67.7956 214.856 70.6341 214.856C73.4779 214.856 76.1445 214.325 78.6914 213.257C81.1758 212.19 83.3685 210.711 85.2643 208.815C87.1549 206.924 88.6393 204.731 89.7018 202.185C90.7695 199.695 91.3633 196.976 91.3633 194.132Z" fill="#00860D"/>
<path d="M145.708 194.252C145.708 191.346 145.12 188.685 144.052 186.195C142.99 183.711 141.505 181.58 139.672 179.804C137.776 178.023 135.583 176.664 133.099 175.659C130.552 174.648 127.828 174.117 124.984 174.117H114.448V214.383H124.984C127.828 214.383 130.552 213.909 133.099 212.903C135.583 211.898 137.776 210.476 139.672 208.7C141.505 206.924 142.99 204.851 144.052 202.362C145.12 199.877 145.708 197.211 145.708 194.252ZM141.682 194.252C141.682 198.867 140.026 202.716 136.828 205.737C133.63 208.758 129.724 210.237 125.104 210.237H118.589V178.263H125.104C129.724 178.263 133.63 179.804 136.828 182.763C140.026 185.841 141.682 189.69 141.682 194.252Z" fill="#00860D"/>
<path d="M188.282 194.132C188.282 198.752 186.621 202.659 183.423 205.856C180.168 209.112 176.261 210.711 171.699 210.711C167.142 210.711 163.235 209.112 160.037 205.856C156.777 202.659 155.178 198.752 155.178 194.132C155.178 189.632 156.777 185.721 160.037 182.466C163.235 179.268 167.142 177.612 171.699 177.612C176.261 177.612 180.168 179.268 183.423 182.466C186.621 185.721 188.282 189.632 188.282 194.132ZM192.428 194.132C192.428 191.289 191.834 188.627 190.767 186.08C189.704 183.591 188.22 181.398 186.329 179.507C184.433 177.669 182.241 176.19 179.756 175.122C177.209 174.06 174.543 173.466 171.699 173.466C168.86 173.466 166.136 174.06 163.647 175.122C161.162 176.19 158.97 177.669 157.074 179.507C155.178 181.398 153.699 183.591 152.636 186.08C151.569 188.627 151.037 191.289 151.037 194.132C151.037 196.976 151.569 199.695 152.636 202.185C153.699 204.731 155.178 206.924 157.074 208.815C158.97 210.711 161.162 212.19 163.647 213.257C166.136 214.325 168.86 214.856 171.699 214.856C174.543 214.856 177.209 214.325 179.756 213.257C182.241 212.19 184.433 210.711 186.329 208.815C188.22 206.924 189.704 204.731 190.767 202.185C191.834 199.695 192.428 196.976 192.428 194.132Z" fill="#00860D"/>
<path d="M219.653 210.237V174.117H215.513V214.383H234.044V210.237H219.653Z" fill="#00860D"/>
<path d="M243.809 214.383V174.117H239.669V214.383H243.809Z" fill="#00860D"/>
<path d="M263.824 195.435C269.038 196.679 272.59 198.039 274.481 199.58C275.788 200.643 276.439 202.008 276.439 203.664C276.439 205.325 276.08 206.685 275.371 207.633C273.595 210.117 270.397 211.362 265.897 211.362C259.621 211.362 256.069 209.231 255.298 204.966H250.444C251.866 211.778 257.017 215.153 265.897 215.153C269.866 215.153 273.179 214.325 275.845 212.549C279.043 210.476 280.699 207.393 280.699 203.367C280.699 200.054 279.397 197.508 276.793 195.731C274.955 194.429 271.996 193.242 267.908 192.179C263.767 191.112 261.1 190.221 259.856 189.57C257.132 188.211 255.772 186.315 255.83 183.83C255.83 182.528 256.069 181.398 256.658 180.57C258.199 178.263 260.923 177.08 264.83 177.08C270.34 177.08 273.475 178.856 274.304 182.289H278.804C277.324 176.487 272.647 173.523 264.83 173.523C261.277 173.523 258.142 174.471 255.533 176.367C252.871 178.263 251.507 181.044 251.507 184.836C251.507 189.987 255.652 193.539 263.824 195.435Z" fill="#00860D"/>
<path d="M283.418 177.846H293.189V214.263H297.335V177.846H307.105V173.997H283.418V177.846Z" fill="#00860D"/>
</svg>
